HIERARCHY
ROOT Hips
{
	OFFSET -3.958830 18.904000 13.208200
	CHANNELS 6 Xposition Yposition Zposition Zrotation Yrotation Xrotation 
	JOINT LHipJoint
	{
		OFFSET 0.000000 0.000000 0.000000
		CHANNELS 3 Zrotation Yrotation Xrotation
		JOINT LeftUpLeg
		{
			OFFSET 1.800000 -1.400000 0.085000
			CHANNELS 3 Zrotation Yrotation Xrotation
			JOINT LeftLeg
			{
				OFFSET 2.215000 -6.000000 0.000000
				CHANNELS 3 Zrotation Yrotation Xrotation
				JOINT LeftFoot
				{
					OFFSET 2.500000 -6.900000 0.000000
					CHANNELS 3 Zrotation Yrotation Xrotation
					JOINT LeftToeBase
					{
						OFFSET 0.200000 -0.500000 1.950000
						CHANNELS 3 Zrotation Yrotation Xrotation
						End Site
						{
							OFFSET 0.000000 0.000000 0.000000
						}
					}
				}
			}
		}
	}
	JOINT RHipJoint
	{
		OFFSET 0.000000 0.000000 0.000000
		CHANNELS 3 Zrotation Yrotation Xrotation
		JOINT RightUpLeg
		{
			OFFSET -1.800000 -1.400000 0.085000
			CHANNELS 3 Zrotation Yrotation Xrotation
			JOINT RightLeg
			{
				OFFSET -2.215000 -6.000000 0.000000
				CHANNELS 3 Zrotation Yrotation Xrotation
				JOINT RightFoot
				{
					OFFSET -2.500000 -6.900000 0.000000
					CHANNELS 3 Zrotation Yrotation Xrotation
					JOINT RightToeBase
					{
						OFFSET -0.200000 -0.500000 1.950000
						CHANNELS 3 Zrotation Yrotation Xrotation
						End Site
						{
							OFFSET 0.000000 0.000000 0.000000
						}
					}
				}
			}
		}
	}
	JOINT LowerBack
	{
		OFFSET 0.000000 0.000000 0.000000
		CHANNELS 3 Zrotation Yrotation Xrotation
		JOINT Spine
		{
			OFFSET -0.087000 1.940000 -0.288900
			CHANNELS 3 Zrotation Yrotation Xrotation
			JOINT Spine1
			{
				OFFSET 0.000000 1.950000 0.060000
				CHANNELS 3 Zrotation Yrotation Xrotation
				JOINT Neck
				{
					OFFSET 0.000000 0.000000 0.000000
					CHANNELS 3 Zrotation Yrotation Xrotation
					JOINT Neck1
					{
						OFFSET 0.000000 1.600000 0.340000
						CHANNELS 3 Zrotation Yrotation Xrotation
						JOINT Head
						{
							OFFSET 0.000000 1.667000 -0.240000
							CHANNELS 3 Zrotation Yrotation Xrotation
							End Site
							{
								OFFSET 0.000000 0.000000 0.000000
							}
						}
					}
				}
				JOINT LeftShoulder
				{
					OFFSET 0.000000 0.000000 0.000000
					CHANNELS 3 Zrotation Yrotation Xrotation
					JOINT LeftArm
					{
						OFFSET 2.700000 1.550000 -0.730000
						CHANNELS 3 Zrotation Yrotation Xrotation
						JOINT LeftForeArm
						{
							OFFSET 5.450000 0.000000 0.000000
							CHANNELS 3 Zrotation Yrotation Xrotation
							JOINT LeftHand
							{
								OFFSET 3.450000 0.000000 0.000000
								CHANNELS 3 Zrotation Yrotation Xrotation
								JOINT LeftHandIndex1
								{
									OFFSET 0.750000 0.000000 0.000000
									CHANNELS 3 Zrotation Yrotation Xrotation
									End Site
									{
										OFFSET 0.000000 0.000000 0.000000
									}
								}
							}
						}
					}
				}
				JOINT RightShoulder
				{
					OFFSET 0.000000 0.000000 0.000000
					CHANNELS 3 Zrotation Yrotation Xrotation
					JOINT RightArm
					{
						OFFSET -2.700000 1.550000 -0.730000
						CHANNELS 3 Zrotation Yrotation Xrotation
						JOINT RightForeArm
						{
							OFFSET -5.450000 0.000000 0.000000
							CHANNELS 3 Zrotation Yrotation Xrotation
							JOINT RightHand
							{
								OFFSET -3.450000 0.000000 0.000000
								CHANNELS 3 Zrotation Yrotation Xrotation
								JOINT RightHandIndex1
								{
									OFFSET -0.750000 0.000000 0.000000
									CHANNELS 3 Zrotation Yrotation Xrotation
									End Site
									{
										OFFSET 0.000000 0.000000 0.000000
									}
								}
							}
						}
					}
				}
			}
		}
	}
}
MOTION
Frames: 4
Frame Time: 0.016667
0.664380 17.484710 -1.697580 -21.590650 9.258921 -4.811462 -14.773056 10.616197 1.476048 17.000126 -1.434679 -3.846189 -3.918139 4.159228 2.885853 -0.639044 4.428416 3.304063 0.327110 0.139780 0.160040 19.176250 -8.966384 6.495215 -40.960884 -2.960860 -45.792574 105.615801 -44.922987 17.027233 -2.383849 -11.508774 0.722866 0.336990 0.472140 0.171590 -5.336987 1.530383 -9.019898 33.542645 -4.068737 7.309927 -4.737768 -2.858718 11.946080 2.118414 4.776907 -17.246157 12.563648 -23.931498 12.671758 -10.730790 -16.926010 -3.904150 -5.498832 -25.627657 12.439866 11.039770 6.187466 1.940573 11.273259 -9.835725 -0.450403 -4.207910 2.779290 0.140290 0.408240 -0.324190 0.200560 -1.427046 24.655236 8.083631 8.290511 13.867214 -14.987534 -96.259780 54.193469 -63.189784 1.776967 -1.037579 -0.316190 0.306820 0.027890 -0.078510 
0.668270 17.498140 -1.714210 -21.862895 8.646840 -5.012383 -14.765492 10.655785 1.509511 17.268015 -1.392592 -3.673915 -3.898820 4.191246 2.784464 -0.597447 4.444479 3.304336 0.313180 0.130680 0.145620 19.160899 -8.999972 6.442680 -40.190391 -2.395192 -45.195381 104.761614 -44.784100 17.472880 -2.385804 -11.513849 0.731764 0.315280 0.471210 0.165010 -5.325801 1.492506 -9.015587 34.375672 -4.198100 7.638072 -5.142005 -2.711290 11.958612 2.056011 4.723838 -17.306810 12.346781 -24.038241 13.090131 -10.420500 -17.223120 -3.919540 -5.875792 -25.756009 12.507062 11.231245 5.858779 1.952627 10.614637 -8.609033 -0.420350 -4.214974 2.742936 0.137750 0.398390 -0.318090 0.203790 -0.934992 24.847260 8.254300 8.996931 13.557730 -15.389511 -95.936351 53.889385 -62.709631 1.805311 -1.048435 -0.305580 0.307160 0.025060 -0.065920 
0.680410 17.519930 -1.738310 -22.441750 7.462813 -4.932157 -14.750922 10.759641 1.573012 17.669156 -1.376260 -3.813263 -3.597680 4.168126 2.641138 -0.537078 4.410122 3.314312 0.293820 0.098860 0.149440 19.124308 -9.080170 6.314523 -38.445781 -1.281191 -43.794828 102.916320 -44.463002 18.280910 -2.391551 -11.513167 0.729510 0.264310 0.434270 0.159970 -5.297022 1.383272 -8.979878 36.200728 -4.551243 7.822036 -6.340689 -2.391497 11.528234 2.001528 4.725106 -17.307441 12.032650 -24.258627 13.878016 -10.129770 -17.499170 -3.802060 -6.435483 -25.727654 12.635696 11.398817 5.631890 1.914266 9.562024 -6.406751 -0.397016 -4.203752 2.705783 0.154430 0.360280 -0.292890 0.196940 -0.381404 24.770411 8.492916 10.916732 13.654223 -15.559525 -94.518631 53.278000 -60.934200 1.841708 -1.070577 -0.284920 0.275500 0.009670 -0.062370 
0.693110 17.538000 -1.755840 -22.347481 5.931601 -4.336112 -14.736219 10.789669 1.610494 17.307535 -1.367995 -3.845375 -3.325982 4.026135 2.147091 -0.502936 4.344522 3.341673 0.284140 0.068600 0.138110 19.118789 -9.136205 6.244724 -37.582916 -0.599178 -43.108853 100.881154 -44.508929 19.364264 -2.390033 -11.536516 0.711849 0.227840 0.422870 0.170260 -5.313890 1.381204 -8.931802 36.826269 -4.753050 7.547529 -6.965128 -2.385343 11.071443 1.842314 4.752094 -16.996570 11.753423 -23.986743 14.517079 -9.156020 -17.764230 -3.595400 -6.621847 -25.391649 12.767618 10.742497 5.589605 1.888259 8.593054 -4.518632 -0.441658 -4.201805 2.710395 0.165500 0.336240 -0.285740 0.201800 0.098271 24.197799 8.202386 12.312247 14.898714 -15.101689 -89.977234 52.799850 -56.009117 1.821902 -1.107956 -0.268660 0.242030 0.004810 -0.054260 
